<svg id="Outline" xmlns="http://www.w3.org/2000/svg" width="40" height="40" viewBox="0 0 40 40">
  <defs>
    <style>
      .cls-1 {
        fill: none;
      }
      .cls-2 {
        fill: #3b82f6;
      }
    </style>
  </defs>
  <g>
    <rect class="cls-1" width="40" height="40"/>
    <g>
      <path class="cls-2" d="M32,31a6.951,6.951,0,0,1-3.40912-.89191A8.95945,8.95945,0,0,0,30.941,25H32a1,1,0,0,0,0-2H28V22a1,1,0,0,0-2,0v1H22a1,1,0,0,0,0,2h1.059a8.95945,8.95945,0,0,0,2.35016,5.10809A6.951,6.951,0,0,1,22,31a1,1,0,0,0,0,2,8.94638,8.94638,0,0,0,5-1.52179A8.94638,8.94638,0,0,0,32,33a1,1,0,0,0,0-2Zm-3.0799-6A6.97851,6.97851,0,0,1,27,28.88947A6.97851,6.97851,0,0,1,25.0799,25Z"/>
      <path class="cls-2" d="M34,17H23V6a3.00328,3.00328,0,0,0-3-3H6A3.00328,3.00328,0,0,0,3,6V20a3.00328,3.00328,0,0,0,3,3H17V34a3.00328,3.00328,0,0,0,3,3H34a3.00328,3.00328,0,0,0,3-3V20A3.00328,3.00328,0,0,0,34,17ZM5,20V6A1.001,1.001,0,0,1,6,5H20a1.001,1.001,0,0,1,1,1V20a1.001,1.001,0,0,1-1,1H6A1.001,1.001,0,0,1,5,20ZM35,34a1.001,1.001,0,0,1-1,1H20a1.001,1.001,0,0,1-1-1V23h1a3.00328,3.00328,0,0,0,3-3V19H34a1.001,1.001,0,0,1,1,1Z"/>
      <path class="cls-2" d="M18,17h-.32288L13.92871,7.62891a1.00017,1.00017,0,0,0-1.85742,0L8.32288,17H8a1,1,0,0,0,0,2h3a1,1,0,0,0,0-2h-.52289l.40918-1.02295A.93779.93779,0,0,0,11,16h4a.93779.93779,0,0,0,.11371-.02295L15.52289,17H15a1,1,0,0,0,0,2h3a1,1,0,0,0,0-2Zm-6.32294-3L13,10.69238,14.32294,14Z"/>
    </g>
  </g>
</svg>
